{"title":"Brando.Unauthorized.R5.XviD.AC3-TDP","uid":6521202,"size":1519200211,"categoryP":"video","categoryS":"movies","magnet":"?xt=urn:btih:740bd112dea152362f2f68a4dfcceb0120c46dbf&amp;dn=Brando.Unauthorized.R5.XviD.AC3-TDP&amp;tr=udp%3A%2F%2Ftracker.openbittorrent.com%3A80&amp;tr=udp%3A%2F%2Fopen.demonii.com%3A1337&amp;tr=udp%3A%2F%2Ftracker.coppersurfer.tk%3A6969&amp;tr=udp%3A%2F%2Fexodus.desync.com%3A6969","seeders":0,"leechers":1,"uploader":"TvTeam","files":5,"time":1309998351,"description":". \n  &lt;a href=&quot;\nhttp://www.torrenting.com/&quot; rel=&quot;nofollow&quot; target=&quot;_NEW&quot;&gt;\nhttp://www.torrenting.com/&lt;/a&gt;        :     Greatest Movie Tracker on The Net!!!\n &lt;a href=&quot;\nhttp://www.Torrenting.com&quot; rel=&quot;nofollow&quot; target=&quot;_NEW&quot;&gt;\nhttp://www.Torrenting.com&lt;/a&gt;          :     Once &amp; For all ;)\n\n\n               www . Torrenting . Com \n\n(((((((((((((= Enjoy No RAR releases =))))))))))))))))))))\n\n\n...................................NFO:....................................\n\n.::::::::::::::Enjoy:Another:Release:From:TDP::::::::::::::\n\n[IMG]http://lookpic.com/c1/i2/2363/J1czosNp.jpeg[/IMG]\n\nTiTLE.........: Brando.Unauthorized.R5.XviD.AC3-TDP\nRUNTiME.......: 1h 51mn\nFORMAT........: XviD\nRAR COUNT.....: 101x15MB\nSOURCE .......: R5 DVD9\nGENRE.........: Drama  \nAUDIO.........: English ( studio audio )\nSUBTITLES.....: None\nSAMPEL........: YES\nRELEASE DATE..: 06-07-2011\n\nIMDB : http://www.imdb.com/title/tt1682226/\n\nPlot Outline:\nGenius Actor, Controversial Man, A Parent With Turmoil \n\n\nGeneral\nComplete name                    : Brando.Unauthorized.R5.XviD.AC3-TDP\nFormat                           : AVI\nFormat/Info                      : Audio Video Interleave\nFormat profile                   : OpenDML\nFile size                        : 1.40 GiB\nDuration                         : 1h 51mn\nOverall bit rate                 : 1 794 Kbps\nWriting application              : MEncoder version 4.0.0 building on 20100917\n\n\nVideo\n\nFormat                           : MPEG-4 Visual\nFormat profile                   : Simple@L1\nFormat settings, BVOP            : No\nFormat settings, QPel            : No\nFormat settings, GMC             : No warppoints\nFormat settings, Matrix          : Default (H.263)\nCodec ID                         : DX50\nCodec ID/Hint                    : DivX 5\nDuration                         : 1h 51mn\nBit rate                         : 1 564 Kbps\nWidth                            : 720 pixels\nHeight                           : 404 pixels\nDisplay aspect ratio             : 16:9\nFrame rate                       : 25.000 fps\nColor space                      : YUV\nChroma subsampling               : 4:2:0\nBit depth                        : 8 bits\nScan type                        : Progressive\nCompression mode                 : Lossy\nBits/(Pixel*Frame)               : 0.215\nStream size                      : 1.22 GiB (88%)\nWriting library                  : DigiArty AV Encoder Core\n\nAudio\n\nFormat                           : AC-3\nFormat/Info                      : Audio Coding 3\nMode extension                   : CM (complete main)\nCodec ID                         : 2000\nDuration                         : 1h 51mn\nBit rate mode                    : Constant\nBit rate                         : 224 Kbps\nChannel(s)                       : 2 channels\nChannel positions                : Front: L R\nSampling rate                    : 48.0 KHz\nBit depth                        : 16 bits\nCompression mode                 : Lossy\nStream size                      : 179 MiB (12%)\nAlignment                        : Split accross interleaves\nInterleave, duration             : 500 ms (12.50 video frames)\nInterleave, preload duration     : 500 ms\n\n\nGREETS:\n\nIMAGiNE,FLAWL3SS,ViSiON,FUSiON,Rx,CM8,SecretMyth,BirdFlu,ELEKTRI4KA,Serenity,INK,SUBLIME\nAnd to all the other p2p grps past and present\n\nLooking for : SYNCERS, CAMMERS, SEED/RiPBOXES for group use\nCAPPERS, SiLVER SUPPLiERS, and R1-R2-R4 PRE-RETAiL SOURCE SUPPLIERS!\nAlways looking for CAM+LiNE+SCR+DVDSCR+BRSCR+RUS DVD+PRERETAIL BR &amp; DVD\nIf you'd like to help, feel free to contact us at &lt;a class=&quot;__cf_email__&quot; href=&quot;/cdn-cgi/l/email-protection&quot; data-cfemail=&quot;bbcfd3dedfdad5d2c8d3cbd2c9dacfdec8fbdcd6dad2d795d8d4d6&quot;&gt;[email&amp;#160;protected]&lt;/a&gt;&lt;script cf-hash='f9e31' type=&quot;text/javascript&quot;&gt;\n/* &lt;![CDATA[ */!function(){try{var t=&quot;currentScript&quot;in document?document.currentScript:function(){for(var t=document.getElementsByTagName(&quot;script&quot;),e=t.length;e--;)if(t[e].getAttribute(&quot;cf-hash&quot;))return t[e]}();if(t&amp;&amp;t.previousSibling){var e,r,n,i,c=t.previousSibling,a=c.getAttribute(&quot;data-cfemail&quot;);if(a){for(e=&quot;&quot;,r=parseInt(a.substr(0,2),16),n=2;a.length-n;n+=2)i=parseInt(a.substr(n,2),16)^r,e+=String.fromCharCode(i);e=document.createTextNode(e),c.parentNode.replaceChild(e,c)}}}catch(u){}}();/* ]]&gt; */&lt;/script&gt;","torrent":{"xt":"urn:btih:740bd112dea152362f2f68a4dfcceb0120c46dbf","amp;dn":"Brando.Unauthorized.R5.XviD.AC3-TDP","amp;tr":["udp%3A%2F%2Ftracker.openbittorrent.com%3A80","udp%3A%2F%2Fopen.demonii.com%3A1337","udp%3A%2F%2Ftracker.coppersurfer.tk%3A6969","udp%3A%2F%2Fexodus.desync.com%3A6969"],"infoHash":"740bd112dea152362f2f68a4dfcceb0120c46dbf","infoHashBuffer":{"type":"Buffer","data":[116,11,209,18,222,161,82,54,47,47,104,164,223,204,235,1,32,196,109,191]},"announce":[],"urlList":[]}}